<svg width="18" height="21" viewBox="0 0 683 700" fill="none" xmlns="http://www.w3.org/2000/svg">
<path d="M533.594 21.875L269.166 292.862C240.465 283.945 210.125 282.039 180.576 287.298C151.027 292.556 123.09 304.832 99.0014 323.144C74.913 341.455 55.3427 365.292 41.8575 392.748C28.3723 420.203 21.3469 450.512 21.3438 481.25C21.3438 533.464 41.5821 583.54 77.6067 620.462C113.631 657.383 162.491 678.125 213.438 678.125C243.429 678.119 273.003 670.916 299.791 657.093C326.578 643.269 349.836 623.209 367.7 598.519C385.565 573.829 397.541 545.194 402.668 514.909C407.796 484.623 405.933 453.528 397.229 424.113L448.219 371.875V328.125H490.906L661.656 153.125V21.875H533.594ZM618.969 134.991L473.234 284.375H405.531V353.741L367.048 393.159L348.949 411.709L356.377 436.8C360.667 451.281 362.844 466.222 362.844 481.25C362.844 565.687 295.803 634.375 213.438 634.375C131.072 634.375 64.0312 565.687 64.0312 481.25C64.0312 396.813 131.072 328.125 213.438 328.125C228.079 328.125 242.678 330.356 256.787 334.731L281.247 342.344L299.346 323.794L551.266 65.625H618.969V134.991Z" fill="black"/>
<path d="M170.75 568.75C194.326 568.75 213.438 549.162 213.438 525C213.438 500.838 194.326 481.25 170.75 481.25C147.174 481.25 128.062 500.838 128.062 525C128.062 549.162 147.174 568.75 170.75 568.75Z" fill="black"/>
<path d="M440.663 232.903L568.726 101.653L583.816 117.119L455.753 248.369L440.663 232.903Z" fill="black"/>
</svg>
